<svg xmlns="http://www.w3.org/2000/svg" width="157.321" height="31.727" viewBox="0 0 157.321 31.727"><path d="M116.651,17.42l.463-2.87a34.358,34.358,0,0,0,4.916.522c2.212,0,2.836-.381,3.029-2.154.181-1.624-.087-1.837-2.572-2.628-3.948-1.268-4.838-1.913-4.438-5.553.387-3.493,2.208-4.738,6.2-4.738a23.468,23.468,0,0,1,4.859.478l-.376,2.851a37.317,37.317,0,0,0-4.827-.435c-1.781,0-2.384.457-2.541,1.869-.183,1.65.134,1.82,2.531,2.584,3.781,1.245,4.967,1.891,4.559,5.55-.424,3.829-2.212,5.026-6.79,5.026A24.886,24.886,0,0,1,116.651,17.42Zm-68.046.406L45.044.217h3.465l2.4,12.8L55.967.217h3.349L52,17.825Zm56.409-.1h-3.272L103.679.215h6.455c2.322,0,3.638.363,4.4,1.215.739.826.979,2.144.756,4.149-.309,2.842-1.328,4.2-3.634,4.853l2.276,7.3H110.61l-2.132-6.872h-2.7l-.765,6.872h0Zm1.07-9.653h2.982c1.448,0,2.59,0,2.882-2.621a2.6,2.6,0,0,0-.322-2.024,2.187,2.187,0,0,0-1.691-.44h-3.287ZM18.561,17.73H15.289L17.225.215h6.452c2.325,0,3.643.363,4.4,1.215.739.826.979,2.144.757,4.149-.314,2.842-1.333,4.2-3.634,4.853l2.277,7.3h-3.3l-2.131-6.872H19.324l-.763,6.872h0Zm1.064-9.653h3.041c1.447,0,2.589,0,2.878-2.621a2.607,2.607,0,0,0-.331-2.015,2.179,2.179,0,0,0-1.694-.449H20.189ZM74.4,17.729,76.338.217h3.344L78.069,14.8h7.762c-.412,1.855-1.222,2.929-3.1,2.929Zm-41.711,0H29.342L36.915.12h3.216l3.485,17.606h-3.44l-.544-2.916H33.905l-1.216,2.916h0Zm2.365-5.669h4.064l-1.165-7.35Zm52.661,5.668L89.649.217h10.386L99.71,3.135H92.676L92.213,7.3h5.705l-.326,2.957h-5.7l-.51,4.543h7.261l-.318,2.929Zm-27.326,0L62.328.217H72.713l-.326,2.919H65.351L64.891,7.3H70.6l-.33,2.957h-5.7L64.058,14.8h7.265L71,17.728Zm-56.523,0L5.479,3.135H0L.325.217H14.689c-.412,1.852-1.223,2.929-3.1,2.929H8.827L7.237,17.728Z" transform="translate(0 13.804)"/><path d="M12,29.121l0-.007a1.035,1.035,0,0,1-.037-.265.986.986,0,0,1,1.919-.307h0a1.661,1.661,0,0,0,3.226-.551l0-16,0,0a.094.094,0,0,1,.083-.093H17.2a8.05,8.05,0,0,1,.821-.042,8.522,8.522,0,0,1,.968.058h0a.092.092,0,0,1,.084.092v15.99A3.632,3.632,0,0,1,12,29.121ZM24.17,12.277a10.47,10.47,0,0,0-6.118-1.729,10.471,10.471,0,0,0-6.117,1.729.125.125,0,0,1-.075.026,10.691,10.691,0,0,0-6.192-1.755A11.109,11.109,0,0,0,.184,11.863a.142.142,0,0,1-.075.026A.109.109,0,0,1,0,11.78a.161.161,0,0,1,.01-.049,19.751,19.751,0,0,1,36.1,0,.128.128,0,0,1,.013.051.11.11,0,0,1-.108.111,11.377,11.377,0,0,0-5.578-1.346,10.469,10.469,0,0,0-6.117,1.728.114.114,0,0,1-.074.027A.244.244,0,0,1,24.17,12.277Z" transform="translate(121.2)" fill="#f50002"/></svg>